<?xml version="1.0" encoding="utf-8"?>
<!-- Generator: Adobe Illustrator 16.0.0, SVG Export Plug-In . SVG Version: 6.00 Build 0)  -->
<!DOCTYPE svg PUBLIC "-//W3C//DTD SVG 1.1//EN" "http://www.w3.org/Graphics/SVG/1.1/DTD/svg11.dtd">
<svg version="1.1" id="Layer_1" xmlns="http://www.w3.org/2000/svg" xmlns:xlink="http://www.w3.org/1999/xlink" x="0px" y="0px"
	 width="20px" height="20px" viewBox="0 0 50 50" enable-background="new 0 0 50 50" xml:space="preserve">
<path fill="#FFFFFF" d="M42.724,26.598v15.787c0,1.408-1.143,2.55-2.55,2.55H9.827c-1.408,0-2.55-1.142-2.55-2.55V26.598
	c0-0.881,0.453-1.698,1.198-2.162l15.172-9.477c0.826-0.517,1.877-0.517,2.702,0l15.173,9.477
	C42.271,24.899,42.724,25.717,42.724,26.598z M48.927,19.55L26.353,5.452c-0.826-0.516-1.875-0.516-2.701,0L1.074,19.55
	c-1.194,0.746-1.556,2.319-0.812,3.514c0.745,1.194,2.315,1.559,3.513,0.813L25,10.621l21.223,13.253
	c0.42,0.263,0.886,0.387,1.35,0.387c0.85,0,1.681-0.425,2.163-1.2C50.482,21.866,50.119,20.296,48.927,19.55z"/>
</svg>
