<?xml version="1.0" encoding="utf-8"?>
<!-- Generator: Adobe Illustrator 16.0.0, SVG Export Plug-In . SVG Version: 6.00 Build 0)  -->
<!DOCTYPE svg PUBLIC "-//W3C//DTD SVG 1.1//EN" "http://www.w3.org/Graphics/SVG/1.1/DTD/svg11.dtd">
<svg version="1.1" id="Layer_1" xmlns="http://www.w3.org/2000/svg" xmlns:xlink="http://www.w3.org/1999/xlink" x="0px" y="0px"
	 width="50px" height="50px" viewBox="0 0 50 50" enable-background="new 0 0 50 50" xml:space="preserve">
<path fill="#FFFFFF" d="M49.694,23.065c-0.482,0.772-1.312,1.198-2.16,1.198c-0.46,0-0.928-0.125-1.348-0.387L25,10.646
	L3.813,23.877c-1.193,0.746-2.764,0.381-3.507-0.811c-0.746-1.193-0.383-2.763,0.811-3.508L23.652,5.484
	c0.824-0.515,1.873-0.515,2.698,0l22.537,14.074C50.077,20.305,50.439,21.873,49.694,23.065z M41.497,24.438L26.35,14.977
	c-0.824-0.516-1.873-0.516-2.696,0L8.505,24.438c-0.744,0.464-1.195,1.28-1.195,2.158v15.763c0,1.404,1.14,2.546,2.545,2.546h8.358
	c1.405,0,2.545-1.142,2.545-2.546v-7.177c0-2.339,1.904-4.241,4.244-4.241s4.244,1.904,4.244,4.241v7.174
	c0,1.406,1.141,2.546,2.545,2.546h8.357c1.406,0,2.546-1.14,2.546-2.546v-15.76C42.694,25.716,42.242,24.9,41.497,24.438z"/>
</svg>
