<?xml version="1.0" encoding="utf-8"?>
<!-- Generator: Adobe Illustrator 16.0.0, SVG Export Plug-In . SVG Version: 6.00 Build 0)  -->
<!DOCTYPE svg PUBLIC "-//W3C//DTD SVG 1.1//EN" "http://www.w3.org/Graphics/SVG/1.1/DTD/svg11.dtd">
<svg version="1.1" id="Layer_10" xmlns="http://www.w3.org/2000/svg" xmlns:xlink="http://www.w3.org/1999/xlink" x="0px" y="0px"
	 width="100px" height="100px" viewBox="0 0 100 100" enable-background="new 0 0 100 100" xml:space="preserve">
<path fill="#FFFFFF" d="M96.272,84.418L63.854,52c-0.304-0.306-0.627-0.575-0.961-0.828l5.741-6.046
	c0.294-0.295,0.571-0.606,0.827-0.926c7.621,2.875,16.566,1.259,22.693-4.867c4.468-4.47,6.722-10.652,6.178-16.96
	c-0.06-0.714-0.532-1.331-1.205-1.575c-0.675-0.246-1.43-0.079-1.937,0.427l-10.39,10.389L74.28,28.961L71.299,18.11L81.686,7.722
	c0.509-0.508,0.677-1.264,0.431-1.937c-0.245-0.675-0.861-1.145-1.577-1.207c-6.309-0.544-12.49,1.708-16.961,6.179
	c-6.121,6.122-7.742,15.062-4.871,22.681c-0.311,0.264-0.622,0.545-0.927,0.846l-8.451,8.116L33.811,26.882
	c-0.194-0.194-0.401-0.365-0.613-0.525c0.182-0.32,0.359-0.649,0.524-0.99c3.277,0.631,9.269-5.751,14.357-10.838L33.254-0.298
	c-6.629,6.63-11.47,11.08-10.841,14.357c-1.516,0.741-2.866,1.646-3.827,2.607l-2.088,2.087c-1.355,1.358-2.173,3.046-2.465,4.806
	c-0.203,0.231-0.409,0.475-0.613,0.735l-0.778,0.979c-0.021,0.024-0.089,0.12-0.107,0.145l-0.706,0.987
	c-0.441,0.588-0.826,1.228-1.199,1.845c-0.138,0.229-0.278,0.458-0.421,0.688c-0.023,0.039-0.045,0.078-0.065,0.117l-0.313,0.59
	c-0.38,0.71-0.772,1.446-1.108,2.255L8.667,32.03c-0.397,0.942-0.808,1.918-1.095,2.953L7.433,35.43
	c-0.113,0.368-0.229,0.735-0.335,1.174L6.81,38.03c-0.215,0.892-0.287,1.772-0.35,2.552l-0.042,0.512
	c-0.106,0.808-0.076,1.57-0.046,2.243c0.01,0.225,0.019,0.446,0.025,0.744c0.008,0.124,0.009,0.245,0.013,0.364
	c0.007,0.301,0.015,0.642,0.073,1.001l0.181,1.158c0.039,0.224,0.072,0.441,0.103,0.65c0.069,0.47,0.14,0.957,0.28,1.418
	l0.758,2.632c0.234,0.8,0.994,1.329,1.825,1.271c0.44-0.029,0.836-0.222,1.13-0.516c0.263-0.263,0.445-0.609,0.5-0.998l0.393-2.675
	c0.029-0.212,0.121-0.523,0.215-0.852c0.067-0.229,0.133-0.461,0.184-0.66l0.279-0.998c0.034-0.135,0.1-0.267,0.158-0.402
	c0.056-0.125,0.111-0.254,0.16-0.381c0.094-0.212,0.182-0.425,0.269-0.643c0.172-0.427,0.335-0.829,0.584-1.223
	c0.107-0.182,0.208-0.363,0.311-0.547c0.259-0.464,0.506-0.902,0.797-1.265c0.019-0.021,0.036-0.045,0.055-0.071l0.66-0.91
	c0.135-0.171,0.287-0.333,0.435-0.496c0.105-0.115,0.21-0.23,0.343-0.382c0.389-0.468,0.847-0.877,1.288-1.279l0.236-0.212
	c0.328-0.303,0.706-0.589,1.104-0.891c0.163-0.122,0.322-0.242,0.479-0.361c0.201-0.13,0.396-0.26,0.588-0.39
	c0.358-0.242,0.669-0.452,1.028-0.639l0.782-0.445l0.791-0.388c0.276-0.143,0.547-0.252,0.798-0.354
	c0.149-0.062,0.296-0.122,0.432-0.181c0.139-0.048,0.273-0.1,0.399-0.147c0.169-0.062,0.316-0.121,0.515-0.172l0.213-0.048
	c0.233,0.376,0.505,0.734,0.833,1.062l15.35,15.351L8.168,81.935c-0.013,0.015-0.025,0.026-0.037,0.038
	c-4.078,4.079-4.742,10.05-0.664,14.128c4.079,4.079,9.671,3.033,13.748-1.044c0.018-0.015,0.033-0.032,0.049-0.052l28.909-30.441
	c0.17,0.203,0.338,0.402,0.525,0.592l32.417,32.416c3.632,3.634,9.524,3.634,13.156,0C99.904,93.943,99.904,88.049,96.272,84.418z
	 M16.985,91.695c-1.501,1.505-3.937,1.505-5.44,0c-1.501-1.502-1.501-3.936,0-5.438c1.502-1.5,3.938-1.501,5.44,0
	C18.485,87.76,18.485,90.193,16.985,91.695z"/>
</svg>
